<?xml version="1.0" standalone="no"?><!DOCTYPE svg PUBLIC "-//W3C//DTD SVG 1.1//EN" "http://www.w3.org/Graphics/SVG/1.1/DTD/svg11.dtd"><svg t="1740880109580" class="icon" viewBox="0 0 1196 1024" version="1.1" xmlns="http://www.w3.org/2000/svg" p-id="2877" xmlns:xlink="http://www.w3.org/1999/xlink" width="233.59375" height="200"><path d="M86.311621 86.578426V3.468473H0v337.775925h86.311621z" fill="#3BE1C3" p-id="2878"></path><path d="M1195.289213 3.468473V0H0v3.468473h86.311621v83.109953h681.021365v254.665972H0v86.578426h171.689422v510.932778H128.600313c-23.345492 0-42.288692 19.076602-42.288692 42.288692 0 23.345492 19.076602 42.288692 42.288692 42.288692h43.089109v0.667014h85.377801v-0.667014h683.15581v0.667014h85.377801v-0.667014h85.511204c23.345492 0 42.288692-19.076602 42.288692-42.288692 0-23.345492-19.076602-42.288692-42.288692-42.288692h-85.511204v-510.932778H1195.289213v-86.578426h1.334028V3.468473h-1.334028zM940.223033 938.755602h-85.377801V768.133403h-170.755602v170.622199h-82.576342V515.468473h-85.377801v423.420532H257.067223v-510.932778h683.15581v510.799375z m1.334028-597.511204V256.133403h-86.711829v-83.776967h86.711829V86.578426h82.843147v85.77801h86.578427V256.133403h-86.578427v85.110995h-82.843147z" fill="#3BE3C3" p-id="2879"></path><path d="M1110.978635 256.133403v-83.776967h-86.578427V86.578426h-82.843147v85.77801h-86.711829V256.133403h86.711829v85.110995h82.843147V256.133403z" fill="#FFFFFF" p-id="2880"></path><path d="M684.08963 513.067223h170.755602v170.755601h-170.755602zM446.766024 768.667014h8.404377c10.405419 0 18.9432-8.53778 18.9432-18.9432v-122.463783c0-10.405419-8.53778-18.9432-18.9432-18.943199h-8.404377c-10.405419 0-18.9432 8.53778-18.9432 18.943199V749.723814c0 10.538822 8.53778 18.9432 18.9432 18.9432zM126.732673 253.465347v-43.756123c10.005211 0 16.942157-0.533611 20.677436-1.600834 6.403335-1.867639 11.606045-5.20271 15.341324-10.005211 3.735279-4.802501 5.602918-10.805628 5.602918-18.00938 0-6.536738-1.467431-12.139656-4.26889-16.808755s-6.803544-8.004169-11.739447-10.138614c-4.935904-2.134445-13.073476-3.068265-24.412715-3.068264H107.12246V253.465347H126.732673z m0-84.177176h5.602918c6.136529 0 10.272017 0.667014 12.539865 2.001042 3.068265 1.867639 4.669098 4.802501 4.669098 8.804586 0 2.267848-0.533611 4.26889-1.600833 5.869724-1.067223 1.600834-2.668056 2.801459-4.535696 3.468473s-5.336113 1.067223-10.272017 1.067222H126.732673v-21.211047zM197.569567 222.649297c0-8.137572 0.266806-13.473684 0.800417-15.741533 1.067223-4.402293 3.068265-8.004169 5.736321-10.538822 2.801459-2.534653 6.136529-3.868682 10.005211-3.868681 2.934862 0 5.469515 0.800417 7.603961 2.267847 2.001042 1.600834 3.468473 3.868682 4.26889 7.07035 0.800417 3.201668 1.200625 9.071391 1.200625 18.009379V253.465347h18.9432v-50.559667c0-8.804586-2.267848-15.474726-6.670141-20.010422-5.20271-5.20271-11.606045-7.870766-19.210005-7.870766-3.868682 0-7.737363 0.800417-11.472642 2.401251s-7.60396 4.002084-11.339239 7.337154v-37.219385h-19.076603V253.465347H197.436165v-30.81605zM290.551329 255.332986c4.402293 0 8.53778-0.800417 12.273059-2.401251 3.735279-1.600834 7.470558-4.135487 11.205836-7.737363v8.137572h19.210005v-76.439813h-19.210005v8.404378c-3.468473-3.468473-7.070349-6.003127-11.205836-7.737364-4.002084-1.734237-8.270974-2.534653-12.940073-2.534653-10.005211 0-18.409588 3.735279-25.346535 11.339239-6.936946 7.60396-10.405419 17.208963-10.405419 29.081814 0 11.339239 3.601876 20.944242 10.805628 28.548202 7.203752 7.60396 15.741532 11.339239 25.61334 11.339239z m-11.472642-56.295988c3.868682-4.135487 8.804586-6.269932 14.807712-6.269932s11.072434 2.001042 15.074518 6.13653c4.002084 4.135487 6.003127 9.4716 6.003127 16.14174 0 6.803544-2.001042 12.273059-6.003127 16.541949-4.002084 4.135487-8.937989 6.269932-14.941115 6.269932-5.869724 0-10.805628-2.134445-14.807712-6.403335-4.002084-4.26889-6.003127-9.738405-6.003127-16.275143 0-6.670141 2.001042-12.006253 5.869724-16.141741zM359.920792 222.515894l-0.133403-3.735279c0-10.672225 1.067223-17.875977 3.068265-21.477853 2.001042-3.601876 4.535696-5.469515 7.470558-5.469516 1.467431 0 3.33507 0.533611 5.602918 1.734237l6.003126-16.541949c-2.668056-1.334028-5.336113-2.001042-7.737363-2.001042-3.468473 0-6.803544 0.93382-9.738405 2.934862-2.934862 2.001042-5.336113 4.802501-7.070349 8.671183v-9.605003h-16.408547V253.465347h19.076603v-30.949453zM403.276707 219.447629c0-7.337155 0.667014-12.80667 2.001042-16.141741 1.334028-3.468473 3.201668-6.136529 5.869724-8.004168 2.668056-1.867639 5.469515-2.801459 8.671183-2.801459 2.801459 0 5.336113 0.800417 7.337154 2.267847s3.468473 3.735279 4.535696 6.803544c1.067223 3.068265 1.467431 8.004169 1.467431 14.807712V253.465347h19.343408v-34.551329c0-7.337155 0.667014-12.673267 1.867639-15.874935 1.200625-3.33507 3.201668-5.869724 5.736321-7.737363 2.534653-1.867639 5.602918-2.801459 8.804586-2.801459 4.26889 0 7.60396 1.600834 9.738406 4.669098 2.134445 3.068265 3.201668 8.937989 3.201667 17.609171v38.686817h19.343408v-44.823346c0-9.204794-0.93382-15.874935-2.668056-19.877019s-4.802501-7.337155-8.937989-9.871808c-4.135487-2.534653-8.937989-3.735279-14.407504-3.735279-5.20271 0-10.138614 1.200625-14.540906 3.468473-4.402293 2.401251-8.137572 5.736321-11.205837 10.272017-2.401251-4.535696-5.469515-7.870766-9.338197-10.272017-3.868682-2.401251-8.137572-3.468473-12.940073-3.468473-4.669098 0-9.071391 0.93382-13.073475 2.668056-4.002084 1.734237-7.60396 4.535696-10.939031 8.137572v-8.804586h-19.210005V253.465347h19.210005v-34.017718zM545.217301 255.332986c4.402293 0 8.53778-0.800417 12.273059-2.401251 3.735279-1.600834 7.470558-4.135487 11.205836-7.737363v8.137572h19.210005v-76.439813h-19.210005v8.404378c-3.468473-3.468473-7.070349-6.003127-11.205836-7.737364-4.002084-1.734237-8.270974-2.534653-12.940073-2.534653-10.005211 0-18.409588 3.735279-25.346535 11.339239-6.936946 7.60396-10.405419 17.208963-10.40542 29.081814 0 11.339239 3.601876 20.944242 10.805628 28.548202 7.203752 7.60396 15.741532 11.339239 25.613341 11.339239z m-11.472642-56.295988c3.868682-4.135487 8.804586-6.269932 14.807712-6.269932s11.072434 2.001042 15.074518 6.13653c4.002084 4.135487 6.003127 9.4716 6.003127 16.14174 0 6.803544-2.001042 12.273059-6.003127 16.541949-4.002084 4.135487-8.937989 6.269932-14.941115 6.269932-5.869724 0-10.805628-2.134445-14.807713-6.403335-4.002084-4.26889-6.003127-9.738405-6.003126-16.275143 0-6.670141 2.001042-12.006253 5.869724-16.141741zM639.399687 255.332986c14.941115 0 26.54716-5.336113 34.684732-16.008338l-15.074518-10.405419c-4.802501 5.869724-11.472642 8.804586-20.010422 8.804585-6.936946 0-12.539865-2.001042-16.808755-6.136529-4.26889-4.135487-6.403335-9.4716-6.403335-15.874935 0-6.670141 2.267848-12.139656 6.670141-16.408546 4.402293-4.26889 10.272017-6.403335 17.475769-6.403335 4.002084 0 7.337155 0.667014 10.272016 1.867639 2.934862 1.200625 5.869724 3.33507 8.937989 6.536738l16.008337-8.804585c-3.868682-5.602918-8.804586-9.871808-14.807712-12.940073s-12.80667-4.535696-20.41063-4.535696c-8.137572 0-15.608129 1.734237-22.27827 5.336112s-11.739448 8.404377-15.474727 14.67431c-3.735279 6.269932-5.602918 13.073476-5.602918 20.410631 0 10.672225 3.868682 20.010422 11.472642 28.01459 7.337155 8.004169 17.875977 11.87285 31.349661 11.872851zM689.959354 281.346535H709.70297l47.891611-104.321001h-19.610214l-21.878062 47.89161-19.877019-47.89161h-19.610214l29.081814 70.703492z" fill="#3BE3C3" p-id="2881"></path></svg>